<mxfile host="www.draw.io" modified="2020-04-20T02:02:41.224Z" agent="5.0 (Macintosh; Intel Mac OS X 10_14_4) AppleWebKit/537.36 (KHTML, like Gecko) Chrome/80.0.3987.163 Safari/537.36" etag="RK4RPY-jzU-nodnXlbwa" version="12.9.14" type="github">
  <diagram id="FwHQQJlp3crXb-k4sVE2" name="Page-1">
    <mxGraphModel dx="946" dy="521" grid="1" gridSize="10" guides="1" tooltips="1" connect="1" arrows="1" fold="1" page="1" pageScale="1" pageWidth="827" pageHeight="1169" math="0" shadow="0">
      <root>
        <mxCell id="0" />
        <mxCell id="1" parent="0" />
        <mxCell id="4ihViniQ6pG3tIxpzIFs-23" value="" style="rounded=0;whiteSpace=wrap;html=1;dashed=1;" parent="1" vertex="1">
          <mxGeometry x="120" y="320" width="520" height="150" as="geometry" />
        </mxCell>
        <mxCell id="4ihViniQ6pG3tIxpzIFs-43" value="" style="rounded=0;whiteSpace=wrap;html=1;dashed=1;fillColor=#f5f5f5;strokeColor=#666666;fontColor=#333333;" parent="1" vertex="1">
          <mxGeometry x="430" y="330" width="190" height="130" as="geometry" />
        </mxCell>
        <mxCell id="4ihViniQ6pG3tIxpzIFs-41" value="" style="rounded=0;whiteSpace=wrap;html=1;dashed=1;fillColor=#f5f5f5;strokeColor=#666666;fontColor=#333333;" parent="1" vertex="1">
          <mxGeometry x="140" y="330" width="270" height="130" as="geometry" />
        </mxCell>
        <mxCell id="4ihViniQ6pG3tIxpzIFs-24" value="" style="rounded=0;whiteSpace=wrap;html=1;dashed=1;" parent="1" vertex="1">
          <mxGeometry x="120" y="470" width="520" height="180" as="geometry" />
        </mxCell>
        <mxCell id="4ihViniQ6pG3tIxpzIFs-22" value="" style="rounded=0;whiteSpace=wrap;html=1;dashed=1;" parent="1" vertex="1">
          <mxGeometry x="120" y="230" width="520" height="90" as="geometry" />
        </mxCell>
        <mxCell id="4ihViniQ6pG3tIxpzIFs-21" value="" style="rounded=0;whiteSpace=wrap;html=1;dashed=1;" parent="1" vertex="1">
          <mxGeometry x="120" y="20" width="520" height="210" as="geometry" />
        </mxCell>
        <mxCell id="4ihViniQ6pG3tIxpzIFs-40" style="edgeStyle=none;rounded=0;orthogonalLoop=1;jettySize=auto;html=1;entryX=0.5;entryY=0;entryDx=0;entryDy=0;" parent="1" source="4ihViniQ6pG3tIxpzIFs-1" target="4ihViniQ6pG3tIxpzIFs-15" edge="1">
          <mxGeometry relative="1" as="geometry" />
        </mxCell>
        <mxCell id="4ihViniQ6pG3tIxpzIFs-46" style="edgeStyle=none;rounded=0;orthogonalLoop=1;jettySize=auto;html=1;" parent="1" source="4ihViniQ6pG3tIxpzIFs-1" target="4ihViniQ6pG3tIxpzIFs-41" edge="1">
          <mxGeometry relative="1" as="geometry" />
        </mxCell>
        <mxCell id="4ihViniQ6pG3tIxpzIFs-1" value="数据同步系统" style="rounded=1;whiteSpace=wrap;html=1;fillColor=#d5e8d4;strokeColor=#82b366;" parent="1" vertex="1">
          <mxGeometry x="160" y="255" width="440" height="40" as="geometry" />
        </mxCell>
        <mxCell id="4ihViniQ6pG3tIxpzIFs-30" style="rounded=0;orthogonalLoop=1;jettySize=auto;html=1;" parent="1" source="4ihViniQ6pG3tIxpzIFs-4" target="4ihViniQ6pG3tIxpzIFs-6" edge="1">
          <mxGeometry relative="1" as="geometry" />
        </mxCell>
        <mxCell id="4ihViniQ6pG3tIxpzIFs-32" style="edgeStyle=none;rounded=0;orthogonalLoop=1;jettySize=auto;html=1;" parent="1" source="4ihViniQ6pG3tIxpzIFs-4" target="4ihViniQ6pG3tIxpzIFs-9" edge="1">
          <mxGeometry relative="1" as="geometry" />
        </mxCell>
        <mxCell id="4ihViniQ6pG3tIxpzIFs-4" value="App" style="rounded=1;whiteSpace=wrap;html=1;fillColor=#b0e3e6;strokeColor=#0e8088;" parent="1" vertex="1">
          <mxGeometry x="240" y="30" width="80" height="30" as="geometry" />
        </mxCell>
        <mxCell id="4ihViniQ6pG3tIxpzIFs-31" style="edgeStyle=none;rounded=0;orthogonalLoop=1;jettySize=auto;html=1;" parent="1" source="4ihViniQ6pG3tIxpzIFs-5" target="4ihViniQ6pG3tIxpzIFs-6" edge="1">
          <mxGeometry relative="1" as="geometry" />
        </mxCell>
        <mxCell id="4ihViniQ6pG3tIxpzIFs-33" style="edgeStyle=none;rounded=0;orthogonalLoop=1;jettySize=auto;html=1;entryX=0.5;entryY=0;entryDx=0;entryDy=0;" parent="1" source="4ihViniQ6pG3tIxpzIFs-5" target="4ihViniQ6pG3tIxpzIFs-9" edge="1">
          <mxGeometry relative="1" as="geometry" />
        </mxCell>
        <mxCell id="4ihViniQ6pG3tIxpzIFs-5" value="Web浏览器" style="rounded=1;whiteSpace=wrap;html=1;fillColor=#b0e3e6;strokeColor=#0e8088;" parent="1" vertex="1">
          <mxGeometry x="340" y="30" width="80" height="30" as="geometry" />
        </mxCell>
        <mxCell id="4ihViniQ6pG3tIxpzIFs-34" style="edgeStyle=none;rounded=0;orthogonalLoop=1;jettySize=auto;html=1;" parent="1" source="4ihViniQ6pG3tIxpzIFs-6" target="4ihViniQ6pG3tIxpzIFs-10" edge="1">
          <mxGeometry relative="1" as="geometry" />
        </mxCell>
        <mxCell id="4ihViniQ6pG3tIxpzIFs-35" style="edgeStyle=none;rounded=0;orthogonalLoop=1;jettySize=auto;html=1;" parent="1" source="4ihViniQ6pG3tIxpzIFs-6" target="4ihViniQ6pG3tIxpzIFs-11" edge="1">
          <mxGeometry relative="1" as="geometry" />
        </mxCell>
        <mxCell id="4ihViniQ6pG3tIxpzIFs-6" value="后台服务" style="rounded=1;whiteSpace=wrap;html=1;fillColor=#b0e3e6;strokeColor=#0e8088;" parent="1" vertex="1">
          <mxGeometry x="200" y="100" width="80" height="30" as="geometry" />
        </mxCell>
        <mxCell id="4ihViniQ6pG3tIxpzIFs-38" style="edgeStyle=none;rounded=0;orthogonalLoop=1;jettySize=auto;html=1;entryX=0.432;entryY=-0.075;entryDx=0;entryDy=0;entryPerimeter=0;" parent="1" source="4ihViniQ6pG3tIxpzIFs-9" edge="1" target="4ihViniQ6pG3tIxpzIFs-1">
          <mxGeometry relative="1" as="geometry">
            <mxPoint x="350" y="270" as="targetPoint" />
          </mxGeometry>
        </mxCell>
        <mxCell id="4ihViniQ6pG3tIxpzIFs-9" value="打点收集" style="rounded=1;whiteSpace=wrap;html=1;fillColor=#d0cee2;strokeColor=#56517e;" parent="1" vertex="1">
          <mxGeometry x="390" y="175" width="80" height="30" as="geometry" />
        </mxCell>
        <mxCell id="4ihViniQ6pG3tIxpzIFs-36" style="edgeStyle=none;rounded=0;orthogonalLoop=1;jettySize=auto;html=1;" parent="1" source="4ihViniQ6pG3tIxpzIFs-10" target="4ihViniQ6pG3tIxpzIFs-1" edge="1">
          <mxGeometry relative="1" as="geometry" />
        </mxCell>
        <mxCell id="4ihViniQ6pG3tIxpzIFs-10" value="日志" style="shape=cylinder;whiteSpace=wrap;html=1;boundedLbl=1;backgroundOutline=1;fillColor=#e1d5e7;strokeColor=#9673a6;" parent="1" vertex="1">
          <mxGeometry x="200" y="160" width="50" height="60" as="geometry" />
        </mxCell>
        <mxCell id="4ihViniQ6pG3tIxpzIFs-37" style="edgeStyle=none;rounded=0;orthogonalLoop=1;jettySize=auto;html=1;entryX=0.432;entryY=0;entryDx=0;entryDy=0;entryPerimeter=0;" parent="1" source="4ihViniQ6pG3tIxpzIFs-11" target="4ihViniQ6pG3tIxpzIFs-1" edge="1">
          <mxGeometry relative="1" as="geometry" />
        </mxCell>
        <mxCell id="4ihViniQ6pG3tIxpzIFs-11" value="数据库" style="shape=cylinder;whiteSpace=wrap;html=1;boundedLbl=1;backgroundOutline=1;fillColor=#e1d5e7;strokeColor=#9673a6;" parent="1" vertex="1">
          <mxGeometry x="290" y="160" width="50" height="60" as="geometry" />
        </mxCell>
        <mxCell id="4ihViniQ6pG3tIxpzIFs-39" style="edgeStyle=none;rounded=0;orthogonalLoop=1;jettySize=auto;html=1;entryX=0.448;entryY=-0.025;entryDx=0;entryDy=0;entryPerimeter=0;" parent="1" source="4ihViniQ6pG3tIxpzIFs-12" target="4ihViniQ6pG3tIxpzIFs-1" edge="1">
          <mxGeometry relative="1" as="geometry" />
        </mxCell>
        <mxCell id="4ihViniQ6pG3tIxpzIFs-12" value="爬虫系统" style="rounded=1;whiteSpace=wrap;html=1;fillColor=#d0cee2;strokeColor=#56517e;" parent="1" vertex="1">
          <mxGeometry x="510" y="175" width="80" height="30" as="geometry" />
        </mxCell>
        <mxCell id="4ihViniQ6pG3tIxpzIFs-48" style="edgeStyle=none;rounded=0;orthogonalLoop=1;jettySize=auto;html=1;" parent="1" source="4ihViniQ6pG3tIxpzIFs-13" target="4ihViniQ6pG3tIxpzIFs-16" edge="1">
          <mxGeometry relative="1" as="geometry" />
        </mxCell>
        <mxCell id="4ihViniQ6pG3tIxpzIFs-13" value="大数据存储&lt;br&gt;HDFS" style="shape=cylinder;whiteSpace=wrap;html=1;boundedLbl=1;backgroundOutline=1;fillColor=#e1d5e7;strokeColor=#9673a6;" parent="1" vertex="1">
          <mxGeometry x="320" y="350" width="70" height="80" as="geometry" />
        </mxCell>
        <mxCell id="4ihViniQ6pG3tIxpzIFs-47" style="edgeStyle=none;rounded=0;orthogonalLoop=1;jettySize=auto;html=1;entryX=0.5;entryY=0;entryDx=0;entryDy=0;" parent="1" source="4ihViniQ6pG3tIxpzIFs-14" target="4ihViniQ6pG3tIxpzIFs-16" edge="1">
          <mxGeometry relative="1" as="geometry" />
        </mxCell>
        <mxCell id="4ihViniQ6pG3tIxpzIFs-14" value="大数据批量计算&lt;br&gt;（MapReduce、Spark、Live）" style="rounded=1;whiteSpace=wrap;html=1;fillColor=#ffe6cc;strokeColor=#d79b00;" parent="1" vertex="1">
          <mxGeometry x="180" y="360" width="120" height="60" as="geometry" />
        </mxCell>
        <mxCell id="4ihViniQ6pG3tIxpzIFs-53" style="edgeStyle=none;rounded=0;orthogonalLoop=1;jettySize=auto;html=1;" parent="1" source="4ihViniQ6pG3tIxpzIFs-15" target="4ihViniQ6pG3tIxpzIFs-17" edge="1">
          <mxGeometry relative="1" as="geometry" />
        </mxCell>
        <mxCell id="4ihViniQ6pG3tIxpzIFs-15" value="实时流式计算&lt;br&gt;（flink、kafka stream、spark stream）" style="rounded=1;whiteSpace=wrap;html=1;fillColor=#ffe6cc;strokeColor=#d79b00;" parent="1" vertex="1">
          <mxGeometry x="460" y="360" width="150" height="50" as="geometry" />
        </mxCell>
        <mxCell id="4ihViniQ6pG3tIxpzIFs-49" style="edgeStyle=none;rounded=0;orthogonalLoop=1;jettySize=auto;html=1;entryX=0;entryY=0.5;entryDx=0;entryDy=0;" parent="1" source="4ihViniQ6pG3tIxpzIFs-16" target="4ihViniQ6pG3tIxpzIFs-17" edge="1">
          <mxGeometry relative="1" as="geometry" />
        </mxCell>
        <mxCell id="4ihViniQ6pG3tIxpzIFs-16" value="数据同步系统(导出)" style="rounded=1;whiteSpace=wrap;html=1;fillColor=#d5e8d4;strokeColor=#82b366;" parent="1" vertex="1">
          <mxGeometry x="160" y="500" width="180" height="40" as="geometry" />
        </mxCell>
        <mxCell id="4ihViniQ6pG3tIxpzIFs-50" style="edgeStyle=none;rounded=0;orthogonalLoop=1;jettySize=auto;html=1;" parent="1" source="4ihViniQ6pG3tIxpzIFs-17" target="4ihViniQ6pG3tIxpzIFs-18" edge="1">
          <mxGeometry relative="1" as="geometry" />
        </mxCell>
        <mxCell id="4ihViniQ6pG3tIxpzIFs-51" style="edgeStyle=none;rounded=0;orthogonalLoop=1;jettySize=auto;html=1;" parent="1" source="4ihViniQ6pG3tIxpzIFs-17" target="4ihViniQ6pG3tIxpzIFs-19" edge="1">
          <mxGeometry relative="1" as="geometry" />
        </mxCell>
        <mxCell id="4ihViniQ6pG3tIxpzIFs-52" style="edgeStyle=none;rounded=0;orthogonalLoop=1;jettySize=auto;html=1;entryX=0.5;entryY=0;entryDx=0;entryDy=0;" parent="1" source="4ihViniQ6pG3tIxpzIFs-17" target="4ihViniQ6pG3tIxpzIFs-20" edge="1">
          <mxGeometry relative="1" as="geometry" />
        </mxCell>
        <mxCell id="4ihViniQ6pG3tIxpzIFs-17" value="数据库" style="shape=cylinder;whiteSpace=wrap;html=1;boundedLbl=1;backgroundOutline=1;fillColor=#e1d5e7;strokeColor=#9673a6;" parent="1" vertex="1">
          <mxGeometry x="470" y="490" width="60" height="70" as="geometry" />
        </mxCell>
        <mxCell id="4ihViniQ6pG3tIxpzIFs-18" value="数据应用" style="rounded=1;whiteSpace=wrap;html=1;fillColor=#b0e3e6;strokeColor=#0e8088;" parent="1" vertex="1">
          <mxGeometry x="370" y="600" width="80" height="30" as="geometry" />
        </mxCell>
        <mxCell id="4ihViniQ6pG3tIxpzIFs-19" value="数据监控&lt;span style=&quot;font-family: monospace ; font-size: 0px&quot;&gt;%3CmxGraphModel%3E%3Croot%3E%3CmxCell%20id%3D%220%22%2F%3E%3CmxCell%20id%3D%221%22%20parent%3D%220%22%2F%3E%3CmxCell%20id%3D%222%22%20value%3D%22%E6%89%93%E7%82%B9%E6%94%B6%E9%9B%86%22%20style%3D%22rounded%3D1%3BwhiteSpace%3Dwrap%3Bhtml%3D1%3B%22%20vertex%3D%221%22%20parent%3D%221%22%3E%3CmxGeometry%20x%3D%22390%22%20y%3D%22175%22%20width%3D%2280%22%20height%3D%2230%22%20as%3D%22geometry%22%2F%3E%3C%2FmxCell%3E%3CmxCell%20id%3D%223%22%20value%3D%22%E7%88%AC%E8%99%AB%E7%B3%BB%E7%BB%9F%22%20style%3D%22rounded%3D1%3BwhiteSpace%3Dwrap%3Bhtml%3D1%3B%22%20vertex%3D%221%22%20parent%3D%221%22%3E%3CmxGeometry%20x%3D%22510%22%20y%3D%22175%22%20width%3D%2280%22%20height%3D%2230%22%20as%3D%22geometry%22%2F%3E%3C%2FmxCell%3E%3C%2Froot%3E%3C%2FmxGraphModel%3E&lt;/span&gt;" style="rounded=1;whiteSpace=wrap;html=1;fillColor=#b0e3e6;strokeColor=#0e8088;" parent="1" vertex="1">
          <mxGeometry x="460" y="600" width="80" height="30" as="geometry" />
        </mxCell>
        <mxCell id="4ihViniQ6pG3tIxpzIFs-20" value="运维决策" style="rounded=1;whiteSpace=wrap;html=1;fillColor=#b0e3e6;strokeColor=#0e8088;" parent="1" vertex="1">
          <mxGeometry x="550" y="600" width="80" height="30" as="geometry" />
        </mxCell>
        <mxCell id="4ihViniQ6pG3tIxpzIFs-42" value="批量数据计算" style="text;html=1;strokeColor=none;fillColor=none;align=center;verticalAlign=middle;whiteSpace=wrap;rounded=0;dashed=1;" parent="1" vertex="1">
          <mxGeometry x="250" y="330" width="80" height="20" as="geometry" />
        </mxCell>
        <mxCell id="4ihViniQ6pG3tIxpzIFs-44" value="实时数据计算" style="text;html=1;strokeColor=none;fillColor=none;align=center;verticalAlign=middle;whiteSpace=wrap;rounded=0;dashed=1;" parent="1" vertex="1">
          <mxGeometry x="510" y="330" width="80" height="20" as="geometry" />
        </mxCell>
      </root>
    </mxGraphModel>
  </diagram>
</mxfile>
